{"title":"Beauty.and.the.Geek.AU.S04E01.WEB-DL.AAC.H264-JunKee","uid":7698677,"size":852455053,"categoryP":"video","categoryS":"tv_shows","magnet":"?xt=urn:btih:83c8ff119c1b842cea98b44975e0cddeeef73965&amp;dn=Beauty.and.the.Geek.AU.S04E01.WEB-DL.AAC.H264-JunKee&amp;tr=udp%3A%2F%2Ftracker.openbittorrent.com%3A80&amp;tr=udp%3A%2F%2Fopen.demonii.com%3A1337&amp;tr=udp%3A%2F%2Ftracker.coppersurfer.tk%3A6969&amp;tr=udp%3A%2F%2Fexodus.desync.com%3A6969","seeders":0,"leechers":1,"uploader":"Junkee41","files":-1,"time":1349397434,"description":"Beauty.and.the.Geek.AU.S04E01.WEB-DL.AAC.H264-JunKee\n\n\nAired: 2012-10-04\n\nTVDB Link: http://thetvdb.com/?tab=series&amp;id=118001\n\n\nGeneral\nFormat                                   : MPEG-4\nFile size                                : 813 MB\nDuration                                 : 1h 8m\nOverall bit rate                         : 1 664 Kbps\n\nVideo\nBit rate                                 : 1 500 Kbps\nWidth                                    : 624 pixels\nHeight                                   : 360 pixels\nDisplay aspect ratio                     : 1.733\nFrame rate                               : 25.000 fps\nStream size                              : 733 MiB (90%)\n\nAudio\nFormat                                   : AAC\nBit rate                                 : 160 Kbps\nChannel(s)                               : 2 channels\nStream size                              : 78.1 MiB (10%)\n","torrent":{"xt":"urn:btih:83c8ff119c1b842cea98b44975e0cddeeef73965","amp;dn":"Beauty.and.the.Geek.AU.S04E01.WEB-DL.AAC.H264-JunKee","amp;tr":["udp%3A%2F%2Ftracker.openbittorrent.com%3A80","udp%3A%2F%2Fopen.demonii.com%3A1337","udp%3A%2F%2Ftracker.coppersurfer.tk%3A6969","udp%3A%2F%2Fexodus.desync.com%3A6969"],"infoHash":"83c8ff119c1b842cea98b44975e0cddeeef73965","infoHashBuffer":{"type":"Buffer","data":[131,200,255,17,156,27,132,44,234,152,180,73,117,224,205,222,238,247,57,101]},"announce":[],"urlList":[]}}